# xmcd
#
# Track frame offsets: 
#        150
#        17714
#        35231
#        53829
#        67940
#        80632
#        96698
#        116251
#        131997
#        144418
#        163597
#        179634
#        192611
#        202271
#        214818
#        231356
#        241658
#        257747
#        275844
#        292432
#        313302
#
# Disc length: 4407 seconds
#
# Revision: 0
# Processed by: cddbd v1.5.2PL0 Copyright (c) Steve Scherf et al.
# Submitted via: ExactAudioCopy v0.99pb4
#
DISCID=5f113515
DTITLE=Песни советских композиторов - Песни советских композиторов
DYEAR=2003
DGENRE=Retro
TTITLE0=Пока не поздно
TTITLE1=Зачем остывать костру
TTITLE2=Взрослые, гляньте
TTITLE3=Родничок
TTITLE4=Лесной марш
TTITLE5=Лесной олень
TTITLE6=Синие глаза
TTITLE7=Первый вальс
TTITLE8=Песенка про аиста
TTITLE9=Ты слишишь, море
TTITLE10=Дом, где детство наше остается
TTITLE11=Журавлиная песня
TTITLE12=Щеголенок
TTITLE13=Юные москвичи
TTITLE14=Мама
TTITLE15=Раз, два - радуга
TTITLE16=Песенка о волшебном цветке
TTITLE17=Песня о мечте
TTITLE18=Прощание со школой
TTITLE19=Этот большой мир
TTITLE20=Сколько нас?
EXTD=
EXTT0=
EXTT1=
EXTT2=
EXTT3=
EXTT4=
EXTT5=
EXTT6=
EXTT7=
EXTT8=
EXTT9=
EXTT10=
EXTT11=
EXTT12=
EXTT13=
EXTT14=
EXTT15=
EXTT16=
EXTT17=
EXTT18=
EXTT19=
EXTT20=
PLAYORDER=
